<svg height="512pt" viewBox="0 0 512 512" width="512pt" xmlns="http://www.w3.org/2000/svg"><path d="m204.800781 388.265625h102.398438v76.117187h-102.398438zm0 0" fill="#7fabfa"/><path d="m204.800781 388.265625h81.066407v76.117187h-81.066407zm0 0" fill="#a4c2f7"/><path d="m353.511719 422.398438h-195.023438c-13.78125 0-26.707031 1.878906-34.722656-9.332032l-29.898437-41.867187h324.265624l-29.867187 41.867187c-8.046875 11.210938-20.972656 9.332032-34.753906 9.332032zm0 0" fill="#a4c2f7"/><path d="m358.398438 477.867188c.019531 5.664062-2.222657 11.101562-6.226563 15.105468s-9.441406 6.246094-15.105469 6.226563h-162.132812c-8.640625.015625-16.4375-5.179688-19.746094-13.164063-3.308594-7.980468-1.476562-17.171875 4.640625-23.273437.714844-.75 1.515625-1.40625 2.390625-1.960938 3.640625-2.804687 8.117188-4.304687 12.714844-4.265625h162.132812c11.78125 0 21.332032 9.550782 21.332032 21.332032zm0 0" fill="#a4c2f7"/><path d="m337.066406 482.132812c.011719 5.664063-2.230468 11.097657-6.230468 15.105469-.707032.71875-1.480469 1.375-2.300782 1.960938h-153.601562c-8.640625.015625-16.4375-5.179688-19.746094-13.164063-3.308594-7.980468-1.476562-17.171875 4.640625-23.273437.714844-.75 1.515625-1.40625 2.390625-1.960938h153.515625c11.78125 0 21.332031 9.550781 21.332031 21.332031zm0 0" fill="#e3e7f2"/><path d="m59.734375 405.332031c-.003906 2.691407-.40625 5.367188-1.195313 7.9375-2.4375 6.738281-8.878906 11.191407-16.042968 11.09375h-16.8125c-.628906.027344-1.261719-.03125-1.875-.171875h-.597656c-5.894532-.699218-10.933594-4.558594-13.140626-10.070312-1.523437-4.234375-1.9375-8.785156-1.195312-13.226563 1.449219-8.289062 6.914062-15.320312 14.589844-18.773437 1.820312-.957032 3.777344-1.617188 5.804687-1.960938 7.507813-1.453125 15.273438.527344 21.171875 5.398438 5.894532 4.871094 9.304688 12.125 9.292969 19.773437zm0 0" fill="#a4c2f7"/><path d="m59.734375 307.199219c0 14.140625-11.460937 25.601562-25.601563 25.601562-3.6875.007813-7.332031-.808593-10.667968-2.390625-9.09375-4.144531-14.929688-13.214844-14.929688-23.210937 0-9.992188 5.835938-19.066407 14.929688-23.210938 3.335937-1.582031 6.980468-2.398437 10.667968-2.386719 14.140626 0 25.601563 11.460938 25.601563 25.597657zm0 0" fill="#a4c2f7"/><path d="m503.464844 405.332031c0 2.691407-.402344 5.367188-1.191406 7.9375-2.441407 6.738281-8.878907 11.191407-16.042969 11.09375h-16.8125c-.628907.027344-1.261719-.03125-1.875-.171875h-.597657c-5.894531-.699218-10.933593-4.558594-13.144531-10.070312-1.523437-4.234375-1.933593-8.785156-1.191406-13.226563 1.449219-8.289062 6.914063-15.320312 14.589844-18.773437 1.820312-.957032 3.777343-1.617188 5.804687-1.960938 7.507813-1.453125 15.273438.527344 21.167969 5.398438 5.898437 4.871094 9.308594 12.125 9.292969 19.773437zm0 0" fill="#a4c2f7"/><path d="m38.398438 405.332031c0 2.691407-.402344 5.367188-1.191407 7.9375-2.089843 5.847657-7.25 10.054688-13.398437 10.921875h-.597656c-5.894532-.699218-10.933594-4.558594-13.140626-10.070312-1.523437-4.234375-1.9375-8.785156-1.195312-13.226563 1.449219-8.289062 6.914062-15.320312 14.589844-18.773437 9.113281 4.128906 14.957031 13.210937 14.933594 23.210937zm0 0" fill="#e3e7f2"/><path d="m482.132812 405.332031c0 2.691407-.402343 5.367188-1.195312 7.9375-2.089844 5.847657-7.246094 10.054688-13.394531 10.921875h-.597657c-5.894531-.699218-10.933593-4.558594-13.144531-10.070312-1.523437-4.234375-1.933593-8.785156-1.191406-13.226563 1.449219-8.289062 6.914063-15.320312 14.589844-18.773437 9.109375 4.128906 14.957031 13.210937 14.933593 23.210937zm0 0" fill="#e3e7f2"/><path d="m503.464844 307.199219c0 14.140625-11.460938 25.601562-25.597656 25.601562-3.691407.007813-7.335938-.808593-10.667969-2.390625-9.09375-4.144531-14.929688-13.214844-14.929688-23.210937 0-9.992188 5.835938-19.066407 14.929688-23.210938 3.332031-1.582031 6.976562-2.398437 10.667969-2.386719 14.136718 0 25.597656 11.460938 25.597656 25.597657zm0 0" fill="#a4c2f7"/><path d="m38.398438 307.199219c.023437 10-5.820313 19.085937-14.933594 23.210937-9.09375-4.144531-14.929688-13.214844-14.929688-23.210937 0-9.992188 5.835938-19.066407 14.929688-23.210938 9.113281 4.125 14.957031 13.210938 14.933594 23.210938zm0 0" fill="#e3e7f2"/><path d="m482.132812 307.199219c.023438 10-5.824218 19.085937-14.933593 23.210937-9.09375-4.144531-14.929688-13.214844-14.929688-23.210937 0-9.992188 5.835938-19.066407 14.929688-23.210938 9.109375 4.125 14.957031 13.210938 14.933593 23.210938zm0 0" fill="#e3e7f2"/><path d="m187.734375 176.222656h136.53125v71.242188h-136.53125zm0 0" fill="#a4c2f7"/><path d="m128 29.867188c0 9.425781-7.640625 17.066406-17.066406 17.066406-9.425782 0-17.066406-7.640625-17.066406-17.066406 0-9.425782 7.640624-17.066407 17.066406-17.066407 9.425781 0 17.066406 7.640625 17.066406 17.066407zm0 0" fill="#e3e7f2"/><path d="m418.132812 29.867188c0 9.425781-7.640624 17.066406-17.066406 17.066406-9.425781 0-17.066406-7.640625-17.066406-17.066406 0-9.425782 7.640625-17.066407 17.066406-17.066407 9.425782 0 17.066406 7.640625 17.066406 17.066407zm0 0" fill="#e3e7f2"/><path d="m93.867188 264.535156c-12.53125-.011718-23.214844-9.089844-25.246094-21.457031-2.027344-12.367187 5.191406-24.382813 17.066406-28.398437 11.871094-4.011719 24.902344 1.160156 30.792969 12.222656zm0 0" fill="#e3e7f2"/><path d="m395.519531 226.902344c5.890625-11.0625 18.921875-16.234375 30.792969-12.222656 11.875 4.015624 19.09375 16.03125 17.066406 28.398437-2.03125 12.367187-12.714844 21.445313-25.246094 21.457031zm0 0" fill="#e3e7f2"/><path d="m392.535156 157.867188h-273.070312c.078125-69.816407 56.0625-126.710938 125.867187-127.914063.710938-.070313 1.421875-.101563 2.132813-.085937h17.070312c70.679688.023437 127.976563 57.316406 128 128zm0 0" fill="#a4c2f7"/><path d="m371.199219 157.867188h-251.734375c.078125-69.816407 56.0625-126.710938 125.867187-127.914063 69.84375 1.121094 125.871094 58.0625 125.867188 127.914063zm0 0" fill="#e3e7f2"/><path d="m409.601562 170.667969c-.070312 9.394531-7.671874 16.996093-17.066406 17.066406h-273.070312c-9.414063-.027344-17.035156-7.652344-17.066406-17.066406.070312-9.398438 7.671874-17 17.066406-17.066407h273.070312c9.414063.027344 17.035156 7.652344 17.066406 17.066407zm0 0" fill="#a4c2f7"/><path d="m388.265625 170.667969c-.070313 9.394531-7.667969 16.996093-17.066406 17.066406h-251.734375c-9.414063-.027344-17.035156-7.652344-17.066406-17.066406.070312-9.398438 7.671874-17 17.066406-17.066407h251.734375c9.414062.027344 17.039062 7.652344 17.066406 17.066407zm0 0" fill="#e3e7f2"/><path d="m418.132812 264.535156v81.066406h-324.265624v-81.066406c0-23.566406 19.101562-42.667968 42.667968-42.667968h238.929688c23.566406 0 42.667968 19.101562 42.667968 42.667968zm0 0" fill="#a4c2f7"/><path d="m396.800781 264.535156v81.066406h-302.933593v-81.066406c0-23.566406 19.101562-42.667968 42.667968-42.667968h217.597656c23.566407 0 42.667969 19.101562 42.667969 42.667968zm0 0" fill="#e3e7f2"/><path d="m435.199219 358.398438c-.070313 9.398437-7.667969 17-17.066407 17.066406h-324.265624c-9.414063-.027344-17.039063-7.652344-17.066407-17.066406.070313-9.394532 7.667969-16.996094 17.066407-17.066407h324.265624c9.414063.03125 17.039063 7.652344 17.066407 17.066407zm0 0" fill="#a4c2f7"/><path d="m413.867188 358.398438c-.070313 9.398437-7.671876 17-17.066407 17.066406h-302.933593c-9.414063-.027344-17.039063-7.652344-17.066407-17.066406.070313-9.394532 7.667969-16.996094 17.066407-17.066407h302.933593c9.414063.03125 17.039063 7.652344 17.066407 17.066407zm0 0" fill="#e3e7f2"/><path d="m349.867188 281.601562c0 14.136719-11.460938 25.597657-25.601563 25.597657h-136.53125c-14.140625 0-25.601563-11.460938-25.601563-25.597657 0-14.140624 11.460938-25.601562 25.601563-25.601562h136.53125c14.121094.042969 25.558594 11.480469 25.601563 25.601562zm0 0" fill="#e3e7f2"/><path d="m328.535156 281.601562c0 14.136719-11.464844 25.597657-25.601562 25.597657h-115.199219c-14.140625 0-25.601563-11.460938-25.601563-25.597657 0-14.140624 11.460938-25.601562 25.601563-25.601562h115.199219c14.121094.042969 25.558594 11.480469 25.601562 25.601562zm0 0" fill="#ecf0f1"/><path d="m136.535156 281.601562c0 4.710938-3.824218 8.53125-8.535156 8.53125s-8.535156-3.820312-8.535156-8.53125c0-4.714843 3.824218-8.535156 8.535156-8.535156s8.535156 3.820313 8.535156 8.535156zm0 0" fill="#428dff"/><path d="m392.535156 281.601562c0 4.710938-3.824218 8.53125-8.535156 8.53125s-8.535156-3.820312-8.535156-8.53125c0-4.714843 3.824218-8.535156 8.535156-8.535156s8.535156 3.820313 8.535156 8.535156zm0 0" fill="#428dff"/><path d="m204.800781 388.265625h102.398438v76.117187h-102.398438zm0 0" fill="#7fabfa"/><path d="m204.800781 388.265625h81.066407v76.117187h-81.066407zm0 0" fill="#a4c2f7"/><path d="m353.511719 422.398438h-195.023438c-13.78125 0-26.707031 1.878906-34.722656-9.332032l-29.898437-41.867187h324.265624l-29.867187 41.867187c-8.046875 11.210938-20.972656 9.332032-34.753906 9.332032zm0 0" fill="#e3e7f2"/><path d="m358.398438 477.867188c.019531 5.664062-2.222657 11.101562-6.226563 15.105468s-9.441406 6.246094-15.105469 6.226563h-162.132812c-8.640625.015625-16.4375-5.179688-19.746094-13.164063-3.308594-7.980468-1.476562-17.171875 4.640625-23.273437.714844-.75 1.515625-1.40625 2.390625-1.960938 3.640625-2.804687 8.117188-4.304687 12.714844-4.265625h162.132812c11.78125 0 21.332032 9.550782 21.332032 21.332032zm0 0" fill="#a4c2f7"/><path d="m337.066406 482.132812c.011719 5.664063-2.230468 11.097657-6.230468 15.105469-.707032.71875-1.480469 1.375-2.300782 1.960938h-153.601562c-8.640625.015625-16.4375-5.179688-19.746094-13.164063-3.308594-7.980468-1.476562-17.171875 4.640625-23.273437.714844-.75 1.515625-1.40625 2.390625-1.960938h153.515625c11.78125 0 21.332031 9.550781 21.332031 21.332031zm0 0" fill="#e3e7f2"/><path d="m59.734375 405.332031c-.003906 2.691407-.40625 5.367188-1.195313 7.9375-2.4375 6.738281-8.878906 11.191407-16.042968 11.09375h-16.8125c-.628906.027344-1.261719-.03125-1.875-.171875h-.597656c-5.894532-.699218-10.933594-4.558594-13.140626-10.070312-1.523437-4.234375-1.9375-8.785156-1.195312-13.226563 1.449219-8.289062 6.914062-15.320312 14.589844-18.773437 1.820312-.957032 3.777344-1.617188 5.804687-1.960938 7.507813-1.453125 15.273438.527344 21.171875 5.398438 5.894532 4.871094 9.304688 12.125 9.292969 19.773437zm0 0" fill="#a4c2f7"/><path d="m59.734375 307.199219c0 14.140625-11.460937 25.601562-25.601563 25.601562-3.6875.007813-7.332031-.808593-10.667968-2.390625-9.09375-4.144531-14.929688-13.214844-14.929688-23.210937 0-9.992188 5.835938-19.066407 14.929688-23.210938 3.335937-1.582031 6.980468-2.398437 10.667968-2.386719 14.140626 0 25.601563 11.460938 25.601563 25.597657zm0 0" fill="#a4c2f7"/><path d="m503.464844 405.332031c0 2.691407-.402344 5.367188-1.191406 7.9375-2.441407 6.738281-8.878907 11.191407-16.042969 11.09375h-16.8125c-.628907.027344-1.261719-.03125-1.875-.171875h-.597657c-5.894531-.699218-10.933593-4.558594-13.144531-10.070312-1.523437-4.234375-1.933593-8.785156-1.191406-13.226563 1.449219-8.289062 6.914063-15.320312 14.589844-18.773437 1.820312-.957032 3.777343-1.617188 5.804687-1.960938 7.507813-1.453125 15.273438.527344 21.167969 5.398438 5.898437 4.871094 9.308594 12.125 9.292969 19.773437zm0 0" fill="#a4c2f7"/><path d="m38.398438 405.332031c0 2.691407-.402344 5.367188-1.191407 7.9375-2.089843 5.847657-7.25 10.054688-13.398437 10.921875h-.597656c-5.894532-.699218-10.933594-4.558594-13.140626-10.070312-1.523437-4.234375-1.9375-8.785156-1.195312-13.226563 1.449219-8.289062 6.914062-15.320312 14.589844-18.773437 9.113281 4.128906 14.957031 13.210937 14.933594 23.210937zm0 0" fill="#e3e7f2"/><path d="m482.132812 405.332031c0 2.691407-.402343 5.367188-1.195312 7.9375-2.089844 5.847657-7.246094 10.054688-13.394531 10.921875h-.597657c-5.894531-.699218-10.933593-4.558594-13.144531-10.070312-1.523437-4.234375-1.933593-8.785156-1.191406-13.226563 1.449219-8.289062 6.914063-15.320312 14.589844-18.773437 9.109375 4.128906 14.957031 13.210937 14.933593 23.210937zm0 0" fill="#e3e7f2"/><path d="m503.464844 307.199219c0 14.140625-11.460938 25.601562-25.597656 25.601562-3.691407.007813-7.335938-.808593-10.667969-2.390625-9.09375-4.144531-14.929688-13.214844-14.929688-23.210937 0-9.992188 5.835938-19.066407 14.929688-23.210938 3.332031-1.582031 6.976562-2.398437 10.667969-2.386719 14.136718 0 25.597656 11.460938 25.597656 25.597657zm0 0" fill="#a4c2f7"/><path d="m38.398438 307.199219c.023437 10-5.820313 19.085937-14.933594 23.210937-9.09375-4.144531-14.929688-13.214844-14.929688-23.210937 0-9.992188 5.835938-19.066407 14.929688-23.210938 9.113281 4.125 14.957031 13.210938 14.933594 23.210938zm0 0" fill="#e3e7f2"/><path d="m482.132812 307.199219c.023438 10-5.824218 19.085937-14.933593 23.210937-9.09375-4.144531-14.929688-13.214844-14.929688-23.210937 0-9.992188 5.835938-19.066407 14.929688-23.210938 9.109375 4.125 14.957031 13.210938 14.933593 23.210938zm0 0" fill="#e3e7f2"/><path d="m187.734375 176.222656h136.53125v71.242188h-136.53125zm0 0" fill="#a4c2f7"/><path d="m128 29.867188c0 9.425781-7.640625 17.066406-17.066406 17.066406-9.425782 0-17.066406-7.640625-17.066406-17.066406 0-9.425782 7.640624-17.066407 17.066406-17.066407 9.425781 0 17.066406 7.640625 17.066406 17.066407zm0 0" fill="#e3e7f2"/><path d="m418.132812 29.867188c0 9.425781-7.640624 17.066406-17.066406 17.066406-9.425781 0-17.066406-7.640625-17.066406-17.066406 0-9.425782 7.640625-17.066407 17.066406-17.066407 9.425782 0 17.066406 7.640625 17.066406 17.066407zm0 0" fill="#e3e7f2"/><path d="m93.867188 264.535156c-12.53125-.011718-23.214844-9.089844-25.246094-21.457031-2.027344-12.367187 5.191406-24.382813 17.066406-28.398437 11.871094-4.011719 24.902344 1.160156 30.792969 12.222656zm0 0" fill="#e3e7f2"/><path d="m395.519531 226.902344c5.890625-11.0625 18.921875-16.234375 30.792969-12.222656 11.875 4.015624 19.09375 16.03125 17.066406 28.398437-2.03125 12.367187-12.714844 21.445313-25.246094 21.457031zm0 0" fill="#e3e7f2"/><path d="m392.535156 157.867188h-273.070312c.078125-69.816407 56.0625-126.710938 125.867187-127.914063.710938-.070313 1.421875-.101563 2.132813-.085937h17.070312c70.679688.023437 127.976563 57.316406 128 128zm0 0" fill="#d4e1f4"/><path d="m371.199219 157.867188h-251.734375c.078125-69.816407 56.0625-126.710938 125.867187-127.914063 69.84375 1.121094 125.871094 58.0625 125.867188 127.914063zm0 0" fill="#e3e7f2"/><path d="m409.601562 170.667969c-.070312 9.394531-7.671874 16.996093-17.066406 17.066406h-273.070312c-9.414063-.027344-17.035156-7.652344-17.066406-17.066406.070312-9.398438 7.671874-17 17.066406-17.066407h273.070312c9.414063.027344 17.035156 7.652344 17.066406 17.066407zm0 0" fill="#a4c2f7"/><path d="m388.265625 170.667969c-.070313 9.394531-7.667969 16.996093-17.066406 17.066406h-251.734375c-9.414063-.027344-17.035156-7.652344-17.066406-17.066406.070312-9.398438 7.671874-17 17.066406-17.066407h251.734375c9.414062.027344 17.039062 7.652344 17.066406 17.066407zm0 0" fill="#e3e7f2"/><path d="m418.132812 264.535156v81.066406h-324.265624v-81.066406c0-23.566406 19.101562-42.667968 42.667968-42.667968h238.929688c23.566406 0 42.667968 19.101562 42.667968 42.667968zm0 0" fill="#d4e1f4"/><path d="m396.800781 264.535156v81.066406h-302.933593v-81.066406c0-23.566406 19.101562-42.667968 42.667968-42.667968h217.597656c23.566407 0 42.667969 19.101562 42.667969 42.667968zm0 0" fill="#e3e7f2"/><path d="m435.199219 358.398438c-.070313 9.398437-7.667969 17-17.066407 17.066406h-324.265624c-9.414063-.027344-17.039063-7.652344-17.066407-17.066406.070313-9.394532 7.667969-16.996094 17.066407-17.066407h324.265624c9.414063.03125 17.039063 7.652344 17.066407 17.066407zm0 0" fill="#d4e1f4"/><path d="m413.867188 358.398438c-.070313 9.398437-7.671876 17-17.066407 17.066406h-302.933593c-9.414063-.027344-17.039063-7.652344-17.066407-17.066406.070313-9.394532 7.667969-16.996094 17.066407-17.066407h302.933593c9.414063.03125 17.039063 7.652344 17.066407 17.066407zm0 0" fill="#e3e7f2"/><path d="m349.867188 281.601562c0 14.136719-11.460938 25.597657-25.601563 25.597657h-136.53125c-14.140625 0-25.601563-11.460938-25.601563-25.597657 0-14.140624 11.460938-25.601562 25.601563-25.601562h136.53125c14.121094.042969 25.558594 11.480469 25.601563 25.601562zm0 0" fill="#e3e7f2"/><path d="m328.535156 281.601562c0 14.136719-11.464844 25.597657-25.601562 25.597657h-115.199219c-14.140625 0-25.601563-11.460938-25.601563-25.597657 0-14.140624 11.460938-25.601562 25.601563-25.601562h115.199219c14.121094.042969 25.558594 11.480469 25.601562 25.601562zm0 0" fill="#ecf0f1"/><path d="m136.535156 281.601562c0 4.710938-3.824218 8.53125-8.535156 8.53125s-8.535156-3.820312-8.535156-8.53125c0-4.714843 3.824218-8.535156 8.535156-8.535156s8.535156 3.820313 8.535156 8.535156zm0 0" fill="#428dff"/><path d="m392.535156 281.601562c0 4.710938-3.824218 8.53125-8.535156 8.53125s-8.535156-3.820312-8.535156-8.53125c0-4.714843 3.824218-8.535156 8.535156-8.535156s8.535156 3.820313 8.535156 8.535156zm0 0" fill="#428dff"/><g fill="#fff"><path d="m204.800781 422.398438h25.597657v34.136718h-25.597657zm0 0"/><path d="m110.933594 46.933594c4.917968-.011719 9.589844-2.160156 12.800781-5.886719-5.691406-6.367187-5.691406-15.992187 0-22.359375-5.167969-5.960938-13.746094-7.601562-20.746094-3.972656-7.003906 3.625-10.609375 11.582031-8.722656 19.238281 1.890625 7.660156 8.78125 13.023437 16.667969 12.980469zm0 0"/><path d="m119.464844 187.734375h25.601562c-9.414062-.027344-17.039062-7.652344-17.066406-17.066406.070312-9.398438 7.671875-17 17.066406-17.066407h.214844c2.160156-67.328124 56.257812-121.394531 123.585938-123.511718-1.449219-.050782-2.875-.222656-4.332032-.222656h-17.070312c-.710938-.015626-1.421875.015624-2.132813.085937-68.148437 1.121094-123.433593 55.523437-125.652343 123.648437h-.214844c-9.394532.066407-16.996094 7.667969-17.066406 17.066407.03125 9.414062 7.652343 17.039062 17.066406 17.066406zm0 0"/><path d="m162.132812 221.867188h-23.59375c1.382813 1.527343 2.570313 3.21875 3.539063 5.035156l-.167969.289062c6.1875-3.445312 13.140625-5.277344 20.222656-5.324218zm0 0"/><path d="m159.828125 462.761719c-6.117187 6.101562-7.949219 15.292969-4.640625 23.273437 3.308594 7.984375 11.105469 13.179688 19.746094 13.164063h25.601562c-8.640625.015625-16.4375-5.179688-19.746094-13.164063-3.308593-7.980468-1.476562-17.171875 4.640626-23.273437.714843-.75 1.515624-1.40625 2.390624-1.960938 3.640626-2.804687 8.117188-4.304687 12.714844-4.265625h-25.601562c-4.597656-.039062-9.074219 1.460938-12.714844 4.265625-.875.554688-1.675781 1.210938-2.390625 1.960938zm0 0"/><path d="m187.734375 187.734375h25.597656v34.132813h-25.597656zm0 0"/><path d="m47.078125 383.324219c-5.351563-3.1875-11.683594-4.3125-17.808594-3.164063-2.027343.34375-3.984375 1.003906-5.804687 1.960938-7.675782 3.453125-13.140625 10.484375-14.589844 18.773437-.742188 4.441407-.328125 8.992188 1.195312 13.226563 2.207032 5.511718 7.246094 9.371094 13.140626 10.070312h.597656c.613281.140625 1.246094.199219 1.875.171875h16.8125c1.507812-.03125 3.003906-.257812 4.453125-.675781-5.117188-1.113281-9.34375-4.699219-11.28125-9.566406-1.523438-4.234375-1.933594-8.785156-1.191407-13.226563 1.347657-7.453125 5.972657-13.902343 12.601563-17.570312zm0 0"/><path d="m23.464844 330.410156c3.335937 1.582032 6.980468 2.398438 10.667968 2.390625 4.503907-.023437 8.921876-1.246093 12.800782-3.535156-7.917969-4.527344-12.800782-12.945313-12.800782-22.066406 0-9.117188 4.882813-17.539063 12.800782-22.066407-3.878906-2.289062-8.296875-3.507812-12.800782-3.53125-3.6875-.011718-7.332031.804688-10.667968 2.386719-9.09375 4.144531-14.929688 13.21875-14.929688 23.210938 0 9.996093 5.835938 19.066406 14.929688 23.210937zm0 0"/><path d="m93.867188 264.535156v76.796875c-9.398438.070313-16.996094 7.671875-17.066407 17.066407.027344 9.414062 7.652344 17.039062 17.066407 17.066406h3.046874l26.820313 37.601562c8.011719 11.210938 20.941406 9.332032 34.722656 9.332032h10.671875c-7.726562.320312-15.125-3.167969-19.796875-9.332032l-26.820312-37.601562h-3.046875c-9.414063-.027344-17.035156-7.652344-17.066406-17.066406.070312-9.394532 7.671874-16.996094 17.066406-17.066407v-76.796875c-11.589844.023438-21.742188-7.761718-24.726563-18.960937-2.984375-11.203125 1.953125-23.007813 12.023438-28.75-9.308594-5.433594-21.023438-4.453125-29.300781 2.449219-8.277344 6.902343-11.34375 18.25-7.671876 28.382812 3.671876 10.132812 13.300782 16.882812 24.078126 16.878906zm0 0"/><path d="m247.464844 34.132812c-65.941406.089844-119.375 53.523438-119.464844 119.46875h-17.066406c.09375-75.367187 61.167968-136.441406 136.53125-136.535156zm0 0"/></g><path d="m204.800781 119.464844c4.710938 0 8.53125-3.820313 8.53125-8.53125v-25.601563c0-4.710937-3.820312-8.53125-8.53125-8.53125-4.714843 0-8.535156 3.820313-8.535156 8.53125v25.601563c0 4.710937 3.820313 8.53125 8.535156 8.53125zm0 0" fill="#428dff"/><path d="m307.199219 119.464844c4.714843 0 8.535156-3.820313 8.535156-8.53125v-25.601563c0-4.710937-3.820313-8.53125-8.535156-8.53125-4.710938 0-8.53125 3.820313-8.53125 8.53125v25.601563c0 4.710937 3.820312 8.53125 8.53125 8.53125zm0 0" fill="#428dff"/><path d="m187.734375 315.734375h136.53125c18.851563 0 34.132813-15.28125 34.132813-34.132813 0-18.851562-15.28125-34.136718-34.132813-34.136718h-136.53125c-18.851563 0-34.132813 15.285156-34.132813 34.136718 0 18.851563 15.28125 34.132813 34.132813 34.132813zm153.597656-34.132813c0 9.425782-7.640625 17.066407-17.066406 17.066407h-102.398437v-34.132813h102.398437c9.425781 0 17.066406 7.640625 17.066406 17.066406zm-153.597656-17.066406h17.066406v34.132813h-17.066406c-9.425781 0-17.066406-7.640625-17.066406-17.066407 0-9.425781 7.640625-17.066406 17.066406-17.066406zm0 0" fill="#428dff"/><path d="m0 409.601562c.0273438 8.222657 3.0625 16.148438 8.535156 22.289063v11.84375c0 4.710937 3.820313 8.53125 8.53125 8.53125 4.714844 0 8.535156-3.820313 8.535156-8.53125v-17.066406h17.066407v17.066406c0 4.710937 3.820312 8.53125 8.53125 8.53125 4.714843 0 8.535156-3.820313 8.535156-8.53125v-11.84375c5.46875-6.140625 8.503906-14.066406 8.53125-22.289063-.058594-15.519531-10.574219-29.042968-25.597656-32.921874v-36.558594c15.054687-3.832032 25.589843-17.386719 25.589843-32.921875 0-15.535157-10.535156-29.089844-25.589843-32.921875v-9.742188c0-9.425781 7.640625-17.070312 17.066406-17.070312h1.210937c3.121094 11.941406 12.445313 21.269531 24.386719 24.390625v62.515625c-10.910156 3.824218-17.882812 14.507812-16.992187 26.035156.886718 11.527344 9.421875 21.011719 20.789062 23.117188l27.691406 38.765624c9.609376 13.449219 23.960938 13.175782 36.617188 12.96875 1.664062 0 3.355469-.058593 5.050781-.058593h37.777344v17.066406h-21.332031c-16.496094 0-29.867188 13.371094-29.867188 29.867187 0 16.496094 13.371094 29.867188 29.867188 29.867188h162.132812c16.496094 0 29.867188-13.371094 29.867188-29.867188 0-16.496093-13.371094-29.867187-29.867188-29.867187h-21.332031v-17.066406h37.777344c1.707031 0 3.410156 0 5.050781.058593 1.636719.0625 3.300781.0625 4.984375.0625 12.097656 1.484376 24.089844-3.457031 31.632813-13.03125l27.679687-38.765624c11.371094-2.101563 19.90625-11.585938 20.800781-23.113282.890625-11.527344-6.082031-22.214844-16.992187-26.039062v-62.515625c11.941406-3.121094 21.265625-12.449219 24.386719-24.390625h1.210937c9.425781 0 17.066406 7.644531 17.066406 17.070312v9.742188c-15.054687 3.832031-25.589843 17.386718-25.589843 32.921875 0 15.535156 10.535156 29.089843 25.589843 32.921875v36.558594c-15.023437 3.878906-25.539062 17.402343-25.597656 32.921874.027344 8.222657 3.0625 16.148438 8.53125 22.289063v11.84375c0 4.710937 3.820313 8.53125 8.535156 8.53125 4.710938 0 8.53125-3.820313 8.53125-8.53125v-17.066406h17.066407v17.066406c0 4.710937 3.820312 8.53125 8.535156 8.53125 4.710937 0 8.53125-3.820313 8.53125-8.53125v-11.84375c5.472656-6.140625 8.507812-14.066406 8.535156-22.289063-.058594-15.519531-10.574219-29.042968-25.601562-32.921874v-36.558594c15.054687-3.832032 25.59375-17.386719 25.59375-32.921875 0-15.535157-10.539063-29.089844-25.59375-32.921875v-9.742188c0-18.851562-15.28125-34.136718-34.132813-34.136718h-1.210937c-3.117188-12.214844-12.738282-21.703126-24.996094-24.652344-12.257813-2.945313-25.140625 1.128906-33.472656 10.589844-5.492188-1.972657-11.285157-2.992188-17.121094-3.003907h-42.664063v-17.066406h59.734375c12.523438.03125 23.222656-9.027344 25.257813-21.390625 2.03125-12.359375-5.207031-24.371094-17.085938-28.347656-1.433593-28.679688-11.925781-56.167969-29.96875-78.507813l19.363281-19.378906c3.414063 1.667969 7.164063 2.542969 10.964844 2.558594 14.140625 0 25.601563-11.460938 25.601563-25.597657 0-14.140624-11.460938-25.601562-25.601563-25.601562-14.136718 0-25.601562 11.460938-25.601562 25.601562.015625 3.800782.890625 7.546876 2.5625 10.964844l-18.851563 18.898438c-25.355469-24.613282-59.300781-38.386719-94.640625-38.398438h-17.070312c-5.851563.042969-11.695313.460938-17.492188 1.253906-2.636718.308594-5.253906.726563-7.867187 1.203126-2.609375.480468-4.933594 1.074218-7.382813 1.707031-1.066406.28125-2.148437.476562-3.214844.792969-.039062.023437-.078124.042968-.121093.0625-22.007813 6.046874-42.144531 17.527343-58.5625 33.378906l-18.851563-18.898438c1.671875-3.417968 2.546875-7.164062 2.5625-10.964844 0-14.140624-11.464844-25.601562-25.601562-25.601562-14.140625 0-25.601563 11.460938-25.601563 25.601562 0 14.136719 11.460938 25.597657 25.601563 25.597657 3.800781-.015625 7.550781-.890625 10.964844-2.558594l19.363281 19.363281c-.734375.902344-1.382813 1.867188-2.089844 2.789063-1.265625 1.65625-2.5625 3.292969-3.746094 5.007812-1.476562 2.125-2.828125 4.328125-4.191406 6.527344-.707031 1.179687-1.460937 2.332031-2.140625 3.527344-1.589844 2.761719-3.039062 5.605469-4.4375 8.488281-.300781.632812-.617188 1.253906-.90625 1.886719-1.511719 3.234375-2.875 6.535156-4.128906 9.898437l-.34375.9375c-1.269532 3.492188-2.414063 7.03125-3.410156 10.652344-.085938.296875-.15625.597656-.230469.851562-.941407 3.523438-1.777344 7.089844-2.433594 10.726563-.128906.707031-.203125 1.425781-.324219 2.132813-.527344 3.226562-1.042968 6.453124-1.332031 9.746093-.167969 1.773438-.195313 3.550781-.289063 5.324219-11.925781 3.953125-19.203124 15.996094-17.160156 28.390625 2.046875 12.398437 12.804688 21.464844 25.367188 21.375h59.734375v17.066406h-42.664063c-5.835937.011719-11.628906 1.03125-17.121094 3.003907-8.332031-9.460938-21.214843-13.535157-33.472656-10.589844-12.257812 2.949218-21.878906 12.4375-24.996094 24.652344h-1.210937c-18.851563 0-34.132813 15.285156-34.132813 34.136718v9.742188c-15.054687 3.832031-25.5937495 17.386718-25.5937495 32.921875 0 15.535156 10.5390625 29.089843 25.5937495 32.921875v36.558594c-15.027343 3.878906-25.5429682 17.402343-25.601562 32.921874zm494.933594 0c-.027344.75-.105469 1.5-.230469 2.242188-2.527344-1.449219-5.386719-2.222656-8.304687-2.242188h-17.066407c-2.914062.019532-5.773437.792969-8.300781 2.242188-.125-.742188-.203125-1.492188-.230469-2.242188 0-9.425781 7.640625-17.066406 17.066407-17.066406 9.425781 0 17.066406 7.640625 17.066406 17.066406zm0-102.402343c0 9.425781-7.640625 17.066406-17.066406 17.066406-9.425782 0-17.066407-7.640625-17.066407-17.066406s7.640625-17.066407 17.066407-17.066407c9.425781 0 17.066406 7.640626 17.066406 17.066407zm-145.066406 174.933593c0 7.070313-5.730469 12.800782-12.800782 12.800782h-162.132812c-7.070313 0-12.800782-5.730469-12.800782-12.800782 0-7.070312 5.730469-12.800781 12.800782-12.800781h162.132812c7.070313 0 12.800782 5.730469 12.800782 12.800781zm-51.199219-29.867187h-85.335938v-17.066406h85.335938zm82.617187-39.890625c-4.1875 5.859375-10.597656 6.039062-22.425781 5.816406-1.765625 0-3.546875-.058594-5.347656-.058594h-195.023438c-1.800781 0-3.582031 0-5.347656.058594-11.8125.222656-18.238281.042969-22.425781-5.816406l-20.269532-28.375h291.109376zm36.847656-45.441406h-324.265624c-4.714844 0-8.535157-3.820313-8.535157-8.535156 0-4.710938 3.820313-8.53125 8.535157-8.53125h324.265624c4.714844 0 8.535157 3.820312 8.535157 8.53125 0 4.714843-3.820313 8.535156-8.535157 8.535156zm0-145.066406c7.9375-.019532 14.832032 5.453124 16.621094 13.183593 1.792969 7.734375-2 15.675781-9.136718 19.148438-2.359376-11.367188-8.503907-21.59375-17.433594-29.011719 2.882812-2.132812 6.367187-3.292969 9.949218-3.320312zm-17.066406-204.800782c3.851563 0 7.226563 2.578125 8.238282 6.296875 1.007812 3.71875-.597657 7.652344-3.921876 9.597657-3.324218 1.949218-7.539062 1.429687-10.289062-1.269532v-.117187h-.121094c-2.402344-2.453125-3.101562-6.109375-1.773437-9.277344 1.332031-3.167969 4.433593-5.230469 7.867187-5.230469zm-185.171875 21.410156h.136719c1.996094-.613281 4.027344-1.074218 6.058594-1.519531.585937-.128906 1.160156-.316406 1.757812-.433593 1.910156-.375 3.839844-.640626 5.757813-.90625.804687-.117188 1.605469-.246094 2.40625-.347657 5.105469-.617187 10.335937-.914062 15.453125-1.136719h17.070312c62.636719.082032 114.609375 48.460938 119.167969 110.933594h-255.285156c.042969-.546875 0-1.101562.078125-1.648437.074218-.542969.144531-1.089844.195312-1.636719 2.070313-19.746094 8.953125-38.683594 20.042969-55.152344.574219-.851562 1.109375-1.707031 1.707031-2.558594 1.238282-1.707031 2.5625-3.414062 3.925782-5.070312 1-1.234375 1.964843-2.5 2.996093-3.691406l2.414063-2.65625c15.144531-16.410156 34.585937-28.25 56.117187-34.175782zm-113.496093-12.875c0-3.855468 2.582031-7.226562 6.296874-8.238281 3.71875-1.007812 7.652344.597657 9.601563 3.921875 1.945313 3.320313 1.425781 7.539063-1.269531 10.289063h-.121094l-.058594.09375c-2.457031 2.359375-6.078125 3.035156-9.21875 1.714843-3.140625-1.316406-5.195312-4.378906-5.230468-7.78125zm8.535156 145.066407c0-4.714844 3.820312-8.535157 8.53125-8.535157h273.070312c4.710938 0 8.53125 3.820313 8.53125 8.535157 0 4.710937-3.820312 8.53125-8.53125 8.53125h-273.070312c-4.710938 0-8.53125-3.820313-8.53125-8.53125zm85.332031 25.597656h119.46875v17.066406h-119.46875zm-8.53125 34.132813h187.730469c18.851562 0 34.136718 15.285156 34.136718 34.136718v68.265625h-307.203124v-68.265625c0-18.851562 15.285156-34.136718 34.136718-34.136718zm-93.867187-8.53125c3.582031.027343 7.066406 1.1875 9.949218 3.320312-8.929687 7.417969-15.074218 17.644531-17.433594 29.011719-7.136718-3.472657-10.929687-11.414063-9.136718-19.148438 1.789062-7.730469 8.683594-13.203125 16.621094-13.183593zm-42.667969 187.734374c-.027344.75-.105469 1.5-.230469 2.242188-2.527344-1.449219-5.386719-2.222656-8.300781-2.242188h-17.066407c-2.917968.019532-5.777343.792969-8.304687 2.242188-.125-.742188-.203125-1.492188-.230469-2.242188 0-9.425781 7.640625-17.066406 17.066406-17.066406 9.425782 0 17.066407 7.640625 17.066407 17.066406zm-34.132813-102.402343c0-9.425781 7.640625-17.066407 17.066406-17.066407 9.425782 0 17.066407 7.640626 17.066407 17.066407s-7.640625 17.066406-17.066407 17.066406c-4.527343 0-8.867187-1.796875-12.066406-4.996094-3.203125-3.203125-5-7.542969-5-12.070312zm0 0" fill="#428dff"/></svg>